<svg width="130" height="25" viewBox="0 0 130 25" fill="none" xmlns="http://www.w3.org/2000/svg">
<path d="M23.1297 0.591562H18.6297L13.3017 15.7476L11.8977 20.1396L10.4937 15.7116L5.16572 0.591562H0.557722L9.34172 24.3516H14.3817L23.1297 0.591562ZM45.3173 15.1356V0.591562H40.9613V14.7756C40.9613 19.0596 39.1973 21.0396 35.4173 21.0396C31.6373 21.0396 29.8733 19.0596 29.8733 14.7756V0.591562H25.5173V15.1356C25.5173 21.5076 28.9733 24.7116 35.4173 24.7116C41.8613 24.7116 45.3173 21.5076 45.3173 15.1356ZM54.6609 0.591562H50.2329V24.3516H54.6609V0.591562ZM70.2495 0.591562H60.2055V24.3516H64.5255V17.1876H70.2495H70.5015L74.8935 24.3516H79.7175L74.6415 16.1436C77.4135 14.6676 79.1415 11.8236 79.1415 8.72756C79.1415 4.19156 75.4695 0.591562 70.2495 0.591562ZM64.5255 13.5516V4.15556H69.7815C72.8055 4.15556 74.7135 6.27956 74.7135 8.79956C74.7135 11.3196 72.8055 13.5516 69.7815 13.5516H64.5255ZM81.3833 12.4716C81.3833 19.2396 86.8913 24.7476 93.6233 24.7476C100.355 24.7476 105.827 19.2396 105.827 12.4716C105.827 5.73956 100.355 0.231562 93.6233 0.231562C86.8913 0.231562 81.3833 5.73956 81.3833 12.4716ZM85.4873 12.5076C85.4873 8.00756 89.1593 4.29956 93.6233 4.29956C98.0873 4.29956 101.759 8.00756 101.759 12.5076C101.759 16.9356 98.0873 20.6436 93.6233 20.6436C89.1593 20.6436 85.4873 16.9356 85.4873 12.5076ZM129.447 0.591562H125.523V15.1356L125.667 19.1316H125.595L123.399 14.9916L114.615 0.591562H109.575V24.3516H113.535V9.80756L113.391 5.73956H113.427L115.623 9.91556L124.443 24.3516H129.447V0.591562Z" fill="white"/>
</svg>
